:SAMPLES-PER-SECOND 30
:FULLY-SPECIFIED
:DEGREES
280
root  60.6638 39.5405 4.18657 175.768 47.0402 175.556
RightUpLeg  -4.63961 -12.0587 -7.77964
RightLeg  6.11651 -2.98525 2.3935
RightFoot  0.796425 -0.0863756 0.863594
RightToes  5.47152e-009 0 -3.6325e-017
Spine  6.72081 -2.32065 2.40884
Spine1  11.6287 -2.73694 1.29392
HEad  -10.827 25.2548 -16.5494
LeftShoulder1  1.19835 -0.297869 -25.2914
LeftArm  23.3258 -39.2519 -64.3777
LeftForeArm  -11.6822 -32.7 -7.85246
LeftHand  -0.0314962 5.39678 -2.94455
RightShoulder  0.0366664 -3.34751 22.13
RightArm  -17.4656 6.44976 34.1298
RightForeArm  -59.4491 32.3146 9.34002
RightHand  -6.34917 27.3404 -22.8409
LeftUpLeg  -9.88608 4.84501 -1.69408
LeftLeg  9.8006 1.18008 -0.239465
LeftFoot  -2.15248 0.189642 -2.2
LeftToes  -4.29285e-010 1.49941e-010 2.15559e-012
281
root  60.5643 39.5439 4.38923 176.142 42.4051 175.594
RightUpLeg  -4.24585 -12.6183 -8.45817
RightLeg  5.96869 -6.82566 2.3274
RightFoot  0.833865 -0.128019 1.25288
RightToes  5.47152e-009 0 -3.6325e-017
Spine  6.56586 -2.14946 2.80246
Spine1  11.4103 -2.29405 0.601589
HEad  -10.7627 26.4321 -16.3686
LeftShoulder1  1.04162 0.339073 -26.7705
LeftArm  27.1893 -33.3466 -62.8579
LeftForeArm  -13.0195 -32.0309 -7.70688
LeftHand  -0.0472158 5.28895 -2.31168
RightShoulder  -0.073336 -3.72062 23.9144
RightArm  -10.4059 0.283301 35.674
RightForeArm  -55.964 38.1339 11.1542
RightHand  -10.7224 22.8956 -40.7954
LeftUpLeg  -9.50549 6.9414 -0.582968
LeftLeg  11.9802 2.3638 0.350082
LeftFoot  -2.7242 0.153641 -1.82045
LeftToes  -4.29285e-010 1.49941e-010 2.15559e-012
282
root  60.4132 39.5598 4.53749 176.615 37.5342 175.861
RightUpLeg  -3.44651 -12.9197 -9.06112
RightLeg  5.2275 -10.9583 2.20304
RightFoot  1.3402 -0.117962 1.1462
RightToes  5.47152e-009 0 -3.6325e-017
Spine  6.57928 -1.96797 3.62075
Spine1  11.0447 -1.78037 -0.308678
HEad  -10.8301 26.4752 -16.8337
LeftShoulder1  0.877839 0.968131 -28.5079
LeftArm  30.203 -27.9547 -61.7549
LeftForeArm  -13.6209 -27.9073 -6.87724
LeftHand  0.0967354 7.15931 0.0709028
RightShoulder  -0.150651 -3.95368 25.4312
RightArm  -4.43939 -4.99687 37.5816
RightForeArm  -52.9201 41.1491 12.2683
RightHand  -13.8559 32.2665 -43.4691
LeftUpLeg  -9.45778 9.16771 0.78552
LeftLeg  14.1286 4.03422 1.21097
LeftFoot  -2.91092 0.103651 -1.1815
LeftToes  -4.29285e-010 1.49941e-010 2.15559e-012
283
root  60.1896 39.6023 4.66547 176.779 32.5217 175.546
RightUpLeg  -2.55903 -13.7747 -10.3132
RightLeg  4.54843 -14.822 2.40307
RightFoot  1.81113 -0.17318 1.61337
RightToes  5.47152e-009 0 -3.6325e-017
Spine  6.50929 -1.72433 3.81684
Spine1  10.8432 -1.25158 -1.2022
HEad  -10.5691 27.2184 -16.59
LeftShoulder1  0.721358 1.50665 -30.0174
LeftArm  31.6428 -24.5708 -60.6424
LeftForeArm  -15.7086 -20.1258 -7.29015
LeftHand  0.438376 14.345 6.37829
RightShoulder  -0.274219 -4.30096 26.8452
RightArm  -3.90775 -8.39843 38.6121
RightForeArm  -36.912 28.127 7.62535
RightHand  -2.94394 52.4993 -5.09819
LeftUpLeg  -9.13098 12.9212 1.83365
LeftLeg  14.4763 4.25743 1.20498
LeftFoot  -2.52609 0.0172925 -0.0211073
LeftToes  -4.29285e-010 1.49941e-010 2.15559e-012
284
root  59.8892 39.6121 4.74477 177.422 27.3721 175.368
RightUpLeg  -2.22712 -14.576 -11.5322
RightLeg  4.44401 -19.2229 2.51331
RightFoot  1.8903 -0.350557 3.16407
RightToes  5.47152e-009 0 -3.6325e-017
Spine  6.02508 -1.7593 4.572
Spine1  10.6955 -0.786589 -2.9858
HEad  -10.4439 27.1704 -16.2292
LeftShoulder1  0.588479 1.92762 -31.2484
LeftArm  20.736 -21.4135 -56.1256
LeftForeArm  -0.246889 -12.5108 -9.72737
LeftHand  -0.0295799 6.47807 2.94714
RightShoulder  -0.452218 -4.77805 28.6357
RightArm  4.69633 -8.31536 41.6893
RightForeArm  -54.9174 24.2358 7.21152
RightHand  -3.44267 50.9688 -7.12684
LeftUpLeg  -9.4399 16.0362 2.67085
LeftLeg  14.2497 5.93031 1.35842
LeftFoot  -2.5057 0.00399878 0.150161
LeftToes  -4.29285e-010 1.49941e-010 2.15559e-012
285
root  59.5637 39.7006 4.77035 177.474 22.8987 175.561
RightUpLeg  -1.02297 -15.1016 -12.4577
RightLeg  3.97863 -22.696 2.58127
RightFoot  3.0367 -0.107705 1.00154
RightToes  5.47152e-009 0 -3.6325e-017
Spine  6.10838 -1.53479 4.88703
Spine1  10.8868 -0.321992 -3.69222
HEad  -10.3102 27.4071 -16.0459
LeftShoulder1  0.560773 2.03575 -32.1196
LeftArm  -6.41304 -19.4029 -54.7724
LeftForeArm  23.1021 2.41666 -6.91626
LeftHand  -0.00880934 5.62883 4.98827
RightShoulder  -0.457605 -4.78514 28.7367
RightArm  8.88054 -6.72201 45.9272
RightForeArm  -54.3772 24.0021 7.14644
RightHand  -8.30712 36.0166 -25.75
LeftUpLeg  -8.16895 18.0569 4.26905
LeftLeg  12.486 11.5932 1.30456
LeftFoot  -1.83534 -0.0146618 0.293747
LeftToes  -4.29285e-010 1.49941e-010 2.15559e-012
286
root  59.1887 39.7373 4.73491 177.5 19.0112 175.479
RightUpLeg  0.338695 -15.5919 -13.6923
RightLeg  3.03308 -25.7555 2.90349
RightFoot  3.80841 -0.169244 1.4669
RightToes  5.47152e-009 0 -3.6325e-017
Spine  5.98761 -1.1328 5.14963
Spine1  11.19 0.514677 -5.14994
HEad  -10.5921 27.2206 -15.9908
LeftShoulder1  0.608027 1.89204 -31.6766
LeftArm  -6.99769 -15.6944 -49.8188
LeftForeArm  14.0549 4.84468 -5.93734
LeftHand  0.136801 7.78098 8.16233
RightShoulder  -0.550377 -5.02427 29.3623
RightArm  22.1904 -3.15752 51.0315
RightForeArm  -37.7848 26.2214 7.48025
RightHand  -7.64589 13.4583 -42.7059
LeftUpLeg  -6.59322 19.0107 5.86172
LeftLeg  10.7474 21.8886 0.837874
LeftFoot  -1.2042 -0.161202 1.90719
LeftToes  -4.29285e-010 1.49941e-010 2.15559e-012
287
root  58.6674 39.727 4.60566 177.991 14.603 175.458
RightUpLeg  1.45652 -16.4295 -15.2186
RightLeg  2.41656 -28.9813 3.37567
RightFoot  4.6522 -0.206306 1.70063
RightToes  5.47152e-009 0 -3.6325e-017
Spine  5.60649 -0.87403 5.07681
Spine1  10.8301 0.815112 -5.40423
HEad  -10.0919 27.0529 -15.7011
LeftShoulder1  0.470059 2.27304 -32.1314
LeftArm  -8.52374 -12.2155 -44.2813
LeftForeArm  8.75161 5.5029 -5.46592
LeftHand  0.280102 9.50849 8.96041
RightShoulder  -0.45353 -4.77925 28.6359
RightArm  33.1688 -0.0664938 53.6008
RightForeArm  -25.6603 21.6838 6.46513
RightHand  -2.39507 14.5251 -13.7918
LeftUpLeg  -5.76019 18.3565 6.49656
LeftLeg  9.68817 33.1984 0.470153
LeftFoot  -1.19647 -0.284576 3.2881
LeftToes  -4.29285e-010 1.49941e-010 2.15559e-012
288
root  58.071 39.6717 4.36933 178.184 8.95404 175.807
RightUpLeg  4.12062 -17.1417 -16.8511
RightLeg  0.935441 -33.3824 4.51802
RightFoot  5.53058 -0.308969 2.3375
RightToes  5.47152e-009 0 -3.6325e-017
Spine  4.98738 -0.849951 5.12238
Spine1  11.0172 0.827499 -5.45726
HEad  -9.48873 25.9632 -14.8869
LeftShoulder1  0.466473 2.2465 -30.9518
LeftArm  -8.53769 -8.41102 -39.5399
LeftForeArm  4.79219 3.94016 -5.86174
LeftHand  0.299493 9.39737 9.7829
RightShoulder  -0.487259 -4.87497 28.6566
RightArm  39.4436 2.37815 53.9559
RightForeArm  -5.34969 26.9492 6.0332
RightHand  -0.213163 0.376645 -6.29421
LeftUpLeg  -5.2167 18.3829 6.51639
LeftLeg  9.68104 38.8571 0.316995
LeftFoot  -1.36546 -0.354219 4.15293
LeftToes  -4.29285e-010 1.49941e-010 2.15559e-012
289
root  57.3197 39.4918 4.08606 179.06 2.64326 176.576
RightUpLeg  6.52745 -17.9747 -18.3008
RightLeg  -0.425779 -37.9859 6.28549
RightFoot  5.60475 -0.742016 5.23458
RightToes  5.47152e-009 0 -3.6325e-017
Spine  3.95399 -0.804914 5.14227
Spine1  10.4337 0.472656 -4.41806
HEad  -8.07679 24.3881 -13.0289
LeftShoulder1  0.201446 2.95066 -30.3581
LeftArm  -8.20493 -6.32433 -35.4597
LeftForeArm  6.319 2.9011 -6.22083
LeftHand  0.16661 9.97066 5.24253
RightShoulder  -0.424998 -4.7319 27.6171
RightArm  39.4185 2.67023 52.8164
RightForeArm  3.0107 32.5358 7.03316
RightHand  -0.42808 2.57804 -6.43405
LeftUpLeg  -6.3252 19.5112 5.45269
LeftLeg  11.0479 35.9588 1.42008
LeftFoot  -1.57234 -0.290053 3.5301
LeftToes  -4.29285e-010 1.49941e-010 2.15559e-012
